<svg xmlns="http://www.w3.org/2000/svg" xmlns:xlink="http://www.w3.org/1999/xlink" viewBox="0 0 430 430" width="430" height="430" preserveAspectRatio="xMidYMid meet" style="width: 100%; height: 100%; transform: translate3d(0px, 0px, 0px); content-visibility: visible;"><defs><clipPath id="__lottie_element_973"><rect width="430" height="430" x="0" y="0"/></clipPath><clipPath id="__lottie_element_975"><path d="M0,0 L430,0 L430,430 L0,430z"/></clipPath></defs><g clip-path="url(#__lottie_element_973)"><g clip-path="url(#__lottie_element_975)" transform="matrix(1,0,0,1,0,0)" opacity="1" style="display: block;"><g transform="matrix(1,0,0,1,-41,-35)" opacity="1" style="display: block;"><g opacity="1" transform="matrix(1,0,0,1,17,0)"><g opacity="1" transform="matrix(1,0,0,1,359.4840087890625,308.8299865722656)"><g opacity="1" transform="matrix(1,0,0,1,0,0)"><path stroke-linecap="round" stroke-linejoin="round" fill-opacity="0" class="primary" stroke="rgb(0,0,52)" stroke-opacity="1" stroke-width="6.02" d=" M-28.82200050354004,0 C-28.82200050354004,15.918000221252441 -15.918000221252441,28.82200050354004 0,28.82200050354004 C15.918000221252441,28.82200050354004 28.82200050354004,15.918000221252441 28.82200050354004,0 C28.82200050354004,-15.918000221252441 15.918000221252441,-28.82200050354004 0,-28.82200050354004 C-15.918000221252441,-28.82200050354004 -28.82200050354004,-15.918000221252441 -28.82200050354004,0z"/></g></g><g opacity="1" transform="matrix(1,0,0,1,0,0)"><g opacity="1" transform="matrix(1,0,0,1,125.45700073242188,308.8299865722656)"><path stroke-linecap="round" stroke-linejoin="round" fill-opacity="0" class="primary" stroke="rgb(0,0,52)" stroke-opacity="1" stroke-width="6.02" d="M0 0"/></g><g opacity="1" transform="matrix(1,0,0,1,125.45700073242188,308.8299865722656)"><path stroke-linecap="round" stroke-linejoin="round" fill-opacity="0" class="secondary" stroke="rgb(247,66,57)" stroke-opacity="1" stroke-width="6.02" d="M0 0"/></g></g><g opacity="1" transform="matrix(1,0,0,1,0,0)"><g opacity="1" transform="matrix(1,0,0,1,50.59199905395508,211.5570068359375)"><path stroke-linecap="round" stroke-linejoin="round" fill-opacity="0" class="secondary" stroke="rgb(247,66,57)" stroke-opacity="1" stroke-width="6.02" d=" M74.76300048828125,97.27300262451172 C74.76300048828125,97.27300262451172 74.96700286865234,97.27300262451172 74.96700286865234,97.27300262451172 M347.0090026855469,42.54100036621094 C340.3370056152344,50.75299835205078 345.1830139160156,62.69499969482422 352.9289855957031,68.1510009765625 C360.2850036621094,73.33200073242188 372.031005859375,73.94100189208984 378.09600830078125,66.42500305175781 C378.8940124511719,65.43599700927734 379.5660095214844,64.34500122070312 380.0790100097656,63.180999755859375 M18.450000762939453,26.21299934387207 C18.450000762939453,26.21299934387207 -2.4800000190734863,0 -2.4800000190734863,0 M18.257999420166016,0 C18.257999420166016,0 -18.257999420166016,0 -18.257999420166016,0 M176.75999450683594,64.37000274658203 C176.75999450683594,64.37000274658203 194.677001953125,66.5459976196289 194.677001953125,66.5459976196289 M308.7900085449219,97.27300262451172 C308.7900085449219,97.27300262451172 308.9939880371094,97.27300262451172 308.9939880371094,97.27300262451172"/></g><g opacity="1" transform="matrix(1,0,0,1,206.27000427246094,284.2120056152344)"><path stroke-linecap="round" stroke-linejoin="round" fill-opacity="0" class="primary" stroke="rgb(0,0,52)" stroke-opacity="1" stroke-width="6.02" d=" M6.4710001945495605,-38.86000061035156 C6.4710001945495605,-38.86000061035156 20.04400062561035,-84.82599639892578 20.04400062561035,-84.82599639892578 M-109.63500213623047,24.618000030517578 C-109.63500213623047,40.5359992980957 -96.73100280761719,53.43899917602539 -80.81300354003906,53.43899917602539 C-64.8949966430664,53.43899917602539 -51.992000579833984,40.5359992980957 -51.992000579833984,24.618000030517578 C-51.992000579833984,8.699999809265137 -64.8949966430664,-4.203999996185303 -80.81300354003906,-4.203999996185303 C-96.73100280761719,-4.203999996185303 -109.63500213623047,8.699999809265137 -109.63500213623047,24.618000030517578z M-105.87000274658203,38.85599899291992 C-105.87000274658203,38.85599899291992 -137.22999572753906,38.85599899291992 -137.22999572753906,38.85599899291992 C-137.22999572753906,38.85599899291992 -152.5,-12.013999938964844 -152.5,-12.013999938964844 C-152.5,-12.013999938964844 -137.22999572753906,-12.013999938964844 -137.22999572753906,-12.013999938964844 C-137.22999572753906,-12.013999938964844 -137.22999572753906,-46.444000244140625 -137.22999572753906,-46.444000244140625 C-137.22999572753906,-46.444000244140625 -56.060001373291016,-85.24400329589844 36.779998779296875,-85.24400329589844 C94.97000122070312,-85.24400329589844 145.22999572753906,-42.64400100708008 145.22999572753906,-42.64400100708008 C145.22999572753906,-42.64400100708008 167.5500030517578,-40.24399948120117 191.3300018310547,-30.11400032043457 C202.8000030517578,-25.243999481201172 214.60000610351562,-18.56399917602539 224.39999389648438,-9.473999977111816 C229.8699951171875,-4.414000034332275 234.72000122070312,1.3960000276565552 238.5399932861328,8.065999984741211 C238.5399932861328,8.065999984741211 238.3699951171875,38.85599899291992 238.3699951171875,38.85599899291992 C238.3699951171875,38.85599899291992 178.25999450683594,38.85599899291992 178.25999450683594,38.85599899291992 M128.16000366210938,38.85599899291992 C128.16000366210938,38.85599899291992 15.079999923706055,38.85599899291992 15.079999923706055,38.85599899291992 C15.079999923706055,38.85599899291992 -55.7599983215332,38.85599899291992 -55.7599983215332,38.85599899291992 M-61.47999954223633,-72.36399841308594 C-61.47999954223633,-72.36399841308594 -61.47999954223633,-47.24399948120117 -61.47999954223633,-47.24399948120117 C-61.47999954223633,-47.24399948120117 106,-26.354000091552734 106,-26.354000091552734 C106,-26.354000091552734 145.22999572753906,-42.64400100708008 145.22999572753906,-42.64400100708008 M6.4710001945495605,-38.86000061035156 C6.4710001945495605,-38.86000061035156 -11.942000389099121,-20.701000213623047 -11.942000389099121,-20.701000213623047 C-15.32699966430664,-17.363000869750977 -16.06100082397461,-12.04800033569336 -13.717000007629395,-7.855999946594238 C-13.717000007629395,-7.855999946594238 15.081000328063965,38.86000061035156 15.081000328063965,38.86000061035156"/></g></g></g></g><g transform="matrix(1,0,0,1,215,215)" opacity="1" style="display: block;"><g opacity="1" transform="matrix(1,0,0,1,0,0)"><path stroke-linecap="round" stroke-linejoin="round" fill-opacity="0" class="secondary" stroke="rgb(247,66,57)" stroke-opacity="1" stroke-width="6.02" d="M0 0"/></g></g><g transform="matrix(1,0,0,1,215,215)" opacity="1" style="display: none;"><g opacity="1" transform="matrix(1,0,0,1,0,0)"><path stroke-linecap="round" stroke-linejoin="round" fill-opacity="0" class="secondary" stroke="rgb(8,168,138)" stroke-opacity="1" stroke-width="12.04" d="M0 0"/></g></g><g transform="matrix(1,0,0,1,215,215)" opacity="1" style="display: none;"><g opacity="1" transform="matrix(1,0,0,1,0,0)"><path stroke-linecap="round" stroke-linejoin="round" fill-opacity="0" class="secondary" stroke="rgb(8,168,138)" stroke-opacity="1" stroke-width="12.04" d="M0 0"/></g></g><g transform="matrix(1,0,0,1,215,215)" opacity="1" style="display: none;"><g opacity="1" transform="matrix(1,0,0,1,0,0)"><path stroke-linecap="round" stroke-linejoin="round" fill-opacity="0" class="secondary" stroke="rgb(8,168,138)" stroke-opacity="1" stroke-width="12.04" d="M0 0"/></g></g><g transform="matrix(1,0,0,1,215,215)" opacity="1" style="display: none;"><g opacity="1" transform="matrix(1,0,0,1,0,0)"><path stroke-linecap="round" stroke-linejoin="round" fill-opacity="0" class="secondary" stroke="rgb(8,168,138)" stroke-opacity="1" stroke-width="12.04" d="M0 0"/></g></g><g transform="matrix(1,0,0,1,215,215)" opacity="1" style="display: none;"><g opacity="1" transform="matrix(1,0,0,1,0,0)"><path stroke-linecap="round" stroke-linejoin="round" fill-opacity="0" class="secondary" stroke="rgb(8,168,138)" stroke-opacity="1" stroke-width="12.04" d="M0 0"/></g></g><g transform="matrix(1,0,0,1,215,215)" opacity="1" style="display: none;"><g opacity="1" transform="matrix(1,0,0,1,0,0)"><path stroke-linecap="round" stroke-linejoin="round" fill-opacity="0" class="secondary" stroke="rgb(8,168,138)" stroke-opacity="1" stroke-width="12.04" d="M0 0"/></g></g><g transform="matrix(1,0,0,1,215,187)" opacity="1" style="display: none;"><g opacity="1" transform="matrix(1,0,0,1,0,0)"><path stroke-linecap="round" stroke-linejoin="round" fill-opacity="0" class="secondary" stroke="rgb(8,168,138)" stroke-opacity="1" stroke-width="12.04" d="M0 0"/></g></g><g transform="matrix(1,0,0,1,215,187)" opacity="1" style="display: none;"><g opacity="1" transform="matrix(1,0,0,1,0,0)"><path stroke-linecap="round" stroke-linejoin="round" fill-opacity="0" class="secondary" stroke="rgb(8,168,138)" stroke-opacity="1" stroke-width="12.04" d="M0 0"/></g></g><g transform="matrix(1,0,0,1,215,187)" opacity="1" style="display: none;"><g opacity="1" transform="matrix(1,0,0,1,0,0)"><path stroke-linecap="round" stroke-linejoin="round" fill-opacity="0" class="secondary" stroke="rgb(8,168,138)" stroke-opacity="1" stroke-width="12.04" d="M0 0"/></g></g><g transform="matrix(1,0,0,1.0194000005722046,222.63400268554688,191.3843994140625)" opacity="1" style="display: block;"><g opacity="1" transform="matrix(1,0,0,1,0,0)"><path stroke-linecap="round" stroke-linejoin="round" fill-opacity="0" class="primary" stroke-dasharray=" 109 61" stroke-dashoffset="1600" stroke="rgb(0,0,52)" stroke-opacity="1" stroke-width="6.02" d="M0 0"/></g></g></g></g></svg>